# xmcd
#
# Track frame offsets:
#      150
#      13262
#      27137
#      41162
#      56862
#      69962
#      80762
#      95987
#      109112
#      122987
#      138012
#      150787
#      164537
#      175637
#      189587
#      202600
#      215312
#      230487
#      243100
#      256287
#      267975
#      280262
# 
# Disc length: 3895 seconds
#
# Revision: 2
# Processed by: cddbd v1.4PL0 Copyright (c) Steve Scherf et al.
#
# Submitted via: FreeRIP 1.21
#
DISCID=2f0f3516
DTITLE=Bill "Jazz" Gillum - The Bluebird Recordings  1934-1938
DYEAR=1997
DGENRE=blues
TTITLE0=Early In The Morning
TTITLE1=Harmonica  Stomp
TTITLE2=Sarah Jane
TTITLE3=I Want You By My Side
TTITLE4=Jockey Blues
TTITLE5=Don't Scandalize My Name
TTITLE6=My Old Lizzie
TTITLE7=Alberta Blues
TTITLE8=My Old Suitcase
TTITLE9=Birmingham Blues
TTITLE10=Just Like Jesse James
TTITLE11=Reefer Head Woman
TTITLE12=Gillum's Windy Blues
TTITLE13=New Sail On Little Girl
TTITLE14=Sweet Sweet Woman
TTITLE15=Boar Hog Blues
TTITLE16=Worried And Bothered
TTITLE17=I'm That Man Down In The Mine
TTITLE18=Uncertain Blues
TTITLE19=Good Old 51 Highway
TTITLE20=You're Laughing Now
TTITLE21=I'm Gonna Get It
EXTD=RCA 07863 66717 2
EXTT0=
EXTT1=
EXTT2=
EXTT3=
EXTT4=
EXTT5=
EXTT6=
EXTT7=
EXTT8=
EXTT9=
EXTT10=
EXTT11=
EXTT12=
EXTT13=
EXTT14=
EXTT15=
EXTT16=
EXTT17=
EXTT18=
EXTT19=
EXTT20=
EXTT21=
PLAYORDER=
